# Blender v2.74 (sub 0) OBJ File: ''
# www.blender.org
mtllib road.mtl
o Plane20
v -3.621700 0.289100 12.870900
v -2.226500 0.289100 12.870900
v -3.621700 0.289100 12.978499
v -2.226500 0.289100 12.978499
vt 0.000000 1.000000
vt 0.000000 0.000000
vt 1.000000 0.000000
vt 1.000000 1.000000
vn 0.000000 1.000000 0.000000
usemtl b0b0b0
s 1
f 1/1/1 3/2/1 4/3/1 2/4/1
o Plane4
v -0.180200 0.100600 2.380200
v 0.180200 0.100600 2.380200
v -0.180200 0.100600 4.770600
v 0.180200 0.100600 4.770600
vt 0.000000 1.000000
vt 0.000000 0.000000
vt 1.000000 0.000000
vt 1.000000 1.000000
vn 0.000000 1.000000 0.000000
usemtl Standard2
s 1
f 5/5/2 7/6/2 8/7/2 6/8/2
o Plane34
v 2.348100 0.289100 -9.299100
v 3.743300 0.289100 -9.299100
v 2.348100 0.289100 -9.191501
v 3.743300 0.289100 -9.191501
vt 0.000000 1.000000
vt 0.000000 0.000000
vt 1.000000 0.000000
vt 1.000000 1.000000
vn 0.000000 1.000000 0.000000
usemtl b0b0b0
s 1
f 9/9/3 11/10/3 12/11/3 10/12/3
o Plane35
v 2.348100 0.289100 -7.548100
v 3.743300 0.289100 -7.548100
v 2.348100 0.289100 -7.440500
v 3.743300 0.289100 -7.440500
vt 0.000000 1.000000
vt 0.000000 0.000000
vt 1.000000 0.000000
vt 1.000000 1.000000
vn 0.000000 1.000000 0.000000
usemtl b0b0b0
s 1
f 13/13/4 15/14/4 16/15/4 14/16/4
o Plane27
v -3.621700 0.289100 -11.068199
v -2.226500 0.289100 -11.068199
v -3.621700 0.289100 -10.960600
v -2.226500 0.289100 -10.960600
vt 0.000000 1.000000
vt 0.000000 0.000000
vt 1.000000 0.000000
vt 1.000000 1.000000
vn 0.000000 1.000000 0.000000
usemtl b0b0b0
s 1
f 17/17/5 19/18/5 20/19/5 18/20/5
o Plane44
v 2.348100 0.289100 11.419701
v 3.743300 0.289100 11.419701
v 2.348100 0.289100 11.527300
v 3.743300 0.289100 11.527300
vt 0.000000 1.000000
vt 0.000000 0.000000
vt 1.000000 0.000000
vt 1.000000 1.000000
vn 0.000000 1.000000 0.000000
usemtl b0b0b0
s 1
f 21/21/6 23/22/6 24/23/6 22/24/6
o Plane10
v -0.180200 0.250300 -12.598800
v 0.180200 0.250300 -12.598800
v -0.180200 0.250300 -10.208400
v 0.180200 0.250300 -10.208400
vt 0.000000 1.000000
vt 0.000000 0.000000
vt 1.000000 0.000000
vt 1.000000 1.000000
vn 0.000000 1.000000 0.000000
usemtl Standard2
s 1
f 25/25/7 27/26/7 28/27/7 26/28/7
o Plane14
v -3.621700 0.289100 4.508300
v -2.226500 0.289100 4.508300
v -3.621700 0.289100 4.615900
v -2.226500 0.289100 4.615900
vt 0.000000 1.000000
vt 0.000000 0.000000
vt 1.000000 0.000000
vt 1.000000 1.000000
vn 0.000000 1.000000 0.000000
usemtl b0b0b0
s 1
f 29/29/8 31/30/8 32/31/8 30/32/8
o Plane31
v 2.348100 0.289100 -14.546400
v 3.743300 0.289100 -14.546400
v 2.348100 0.289100 -14.438801
v 3.743300 0.289100 -14.438801
vt 0.000000 1.000000
vt 0.000000 0.000000
vt 1.000000 0.000000
vt 1.000000 1.000000
vn 0.000000 1.000000 0.000000
usemtl b0b0b0
s 1
f 33/33/9 35/34/9 36/35/9 34/36/9
o Plane18
v -3.621700 0.289100 9.822801
v -2.226500 0.289100 9.822801
v -3.621700 0.289100 9.930400
v -2.226500 0.289100 9.930400
vt 0.000000 1.000000
vt 0.000000 0.000000
vt 1.000000 0.000000
vt 1.000000 1.000000
vn 0.000000 1.000000 0.000000
usemtl b0b0b0
s 1
f 37/37/10 39/38/10 40/39/10 38/40/10
o Plane36
v 2.348100 0.289100 -5.423200
v 3.743300 0.289100 -5.423200
v 2.348100 0.289100 -5.315600
v 3.743300 0.289100 -5.315600
vt 0.000000 1.000000
vt 0.000000 0.000000
vt 1.000000 0.000000
vt 1.000000 1.000000
vn 0.000000 1.000000 0.000000
usemtl b0b0b0
s 1
f 41/41/11 43/42/11 44/43/11 42/44/11
o Box1
v -3.647350 0.302300 16.004801
v -3.647350 0.302300 -16.004801
v -3.647350 -0.302300 16.004801
v -3.647350 -0.302300 -16.004801
v -3.878050 0.302300 -16.004801
v -3.878050 0.302300 16.004801
v -3.878050 -0.302300 -16.004801
v -3.878050 -0.302300 16.004801
vt 0.000000 1.000000
vt 0.000000 0.000000
vt 1.000000 0.000000
vt 1.000000 1.000000
vn 1.000000 0.000000 0.000000
vn -1.000000 0.000000 0.000000
vn 0.000000 1.000000 0.000000
vn 0.000000 -1.000000 0.000000
vn 0.000000 0.000000 1.000000
vn 0.000000 0.000000 -1.000000
usemtl b0b0b0
s 1
f 45/45/12 47/46/12 48/47/12 46/48/12
f 49/45/13 51/46/13 52/47/13 50/48/13
f 49/45/14 50/46/14 45/47/14 46/48/14
f 52/45/15 51/46/15 48/47/15 47/48/15
f 50/45/16 52/46/16 47/47/16 45/48/16
f 46/45/17 48/46/17 51/47/17 49/48/17
o Plane2
v -3.899400 0.071400 -16.045799
v -2.074600 0.071400 -16.045799
v -3.899400 0.071400 16.045799
v -2.074600 0.071400 16.045799
vt 0.000000 1.000000
vt 0.000000 0.000000
vt 1.000000 0.000000
vt 1.000000 1.000000
vn 0.000000 1.000000 0.000000
usemtl Standard
s 1
f 53/49/18 55/50/18 56/51/18 54/52/18
o Box5
v 3.871350 0.302300 16.004801
v 3.871350 0.302300 -16.004801
v 3.871350 -0.302300 16.004801
v 3.871350 -0.302300 -16.004801
v 3.640650 0.302300 -16.004801
v 3.640650 0.302300 16.004801
v 3.640650 -0.302300 -16.004801
v 3.640650 -0.302300 16.004801
vt 0.000000 1.000000
vt 0.000000 0.000000
vt 1.000000 0.000000
vt 1.000000 1.000000
vn 1.000000 0.000000 0.000000
vn -1.000000 0.000000 0.000000
vn 0.000000 1.000000 0.000000
vn 0.000000 -1.000000 0.000000
vn 0.000000 0.000000 1.000000
vn 0.000000 0.000000 -1.000000
usemtl b0b0b0
s 1
f 57/53/19 59/54/19 60/55/19 58/56/19
f 61/53/20 63/54/20 64/55/20 62/56/20
f 61/53/21 62/54/21 57/55/21 58/56/21
f 64/53/22 63/54/22 60/55/22 59/56/22
f 62/53/23 64/54/23 59/55/23 57/56/23
f 58/53/24 60/54/24 63/55/24 61/56/24
o Box3
v -3.647350 0.302300 16.004801
v -3.647350 0.302300 -16.004801
v -3.647350 -0.302300 16.004801
v -3.647350 -0.302300 -16.004801
v -3.878050 0.302300 -16.004801
v -3.878050 0.302300 16.004801
v -3.878050 -0.302300 -16.004801
v -3.878050 -0.302300 16.004801
vt 0.000000 1.000000
vt 0.000000 0.000000
vt 1.000000 0.000000
vt 1.000000 1.000000
vn 1.000000 0.000000 0.000000
vn -1.000000 0.000000 0.000000
vn 0.000000 1.000000 0.000000
vn 0.000000 -1.000000 0.000000
vn 0.000000 0.000000 1.000000
vn 0.000000 0.000000 -1.000000
usemtl b0b0b0
s 1
f 65/57/25 67/58/25 68/59/25 66/60/25
f 69/57/26 71/58/26 72/59/26 70/60/26
f 69/57/27 70/58/27 65/59/27 66/60/27
f 72/57/28 71/58/28 68/59/28 67/60/28
f 70/57/29 72/58/29 67/59/29 65/60/29
f 66/57/30 68/58/30 71/59/30 69/60/30
o Plane21
v -3.621700 0.289100 14.302700
v -2.226500 0.289100 14.302700
v -3.621700 0.289100 14.410299
v -2.226500 0.289100 14.410299
vt 0.000000 1.000000
vt 0.000000 0.000000
vt 1.000000 0.000000
vt 1.000000 1.000000
vn 0.000000 1.000000 0.000000
usemtl b0b0b0
s 1
f 73/61/31 75/62/31 76/63/31 74/64/31
o Plane6
v -0.180200 0.153200 10.439700
v 0.180200 0.153200 10.439700
v -0.180200 0.153200 12.830100
v 0.180200 0.153200 12.830100
vt 0.000000 1.000000
vt 0.000000 0.000000
vt 1.000000 0.000000
vt 1.000000 1.000000
vn 0.000000 1.000000 0.000000
usemtl Standard2
s 1
f 77/65/32 79/66/32 80/67/32 78/68/32
o Plane33
v 2.348100 0.289100 -11.259500
v 3.743300 0.289100 -11.259500
v 2.348100 0.289100 -11.151900
v 3.743300 0.289100 -11.151900
vt 0.000000 1.000000
vt 0.000000 0.000000
vt 1.000000 0.000000
vt 1.000000 1.000000
vn 0.000000 1.000000 0.000000
usemtl b0b0b0
s 1
f 81/69/33 83/70/33 84/71/33 82/72/33
o Plane23
v -3.621700 0.289100 -3.421400
v -2.226500 0.289100 -3.421400
v -3.621700 0.289100 -3.313800
v -2.226500 0.289100 -3.313800
vt 0.000000 1.000000
vt 0.000000 0.000000
vt 1.000000 0.000000
vt 1.000000 1.000000
vn 0.000000 1.000000 0.000000
usemtl b0b0b0
s 1
f 85/73/34 87/74/34 88/75/34 86/76/34
o Plane12
v -3.621700 0.289100 1.518700
v -2.226500 0.289100 1.518700
v -3.621700 0.289100 1.626300
v -2.226500 0.289100 1.626300
vt 0.000000 1.000000
vt 0.000000 0.000000
vt 1.000000 0.000000
vt 1.000000 1.000000
vn 0.000000 1.000000 0.000000
usemtl b0b0b0
s 1
f 89/77/35 91/78/35 92/79/35 90/80/35
o Plane28
v -3.621700 0.289100 -13.039599
v -2.226500 0.289100 -13.039599
v -3.621700 0.289100 -12.932000
v -2.226500 0.289100 -12.932000
vt 0.000000 1.000000
vt 0.000000 0.000000
vt 1.000000 0.000000
vt 1.000000 1.000000
vn 0.000000 1.000000 0.000000
usemtl b0b0b0
s 1
f 93/81/36 95/82/36 96/83/36 94/84/36
o Plane15
v -3.621700 0.289100 5.845300
v -2.226500 0.289100 5.845300
v -3.621700 0.289100 5.952900
v -2.226500 0.289100 5.952900
vt 0.000000 1.000000
vt 0.000000 0.000000
vt 1.000000 0.000000
vt 1.000000 1.000000
vn 0.000000 1.000000 0.000000
usemtl b0b0b0
s 1
f 97/85/37 99/86/37 100/87/37 98/88/37
o Plane22
v -3.621700 0.289100 -1.729400
v -2.226500 0.289100 -1.729400
v -3.621700 0.289100 -1.621800
v -2.226500 0.289100 -1.621800
vt 0.000000 1.000000
vt 0.000000 0.000000
vt 1.000000 0.000000
vt 1.000000 1.000000
vn 0.000000 1.000000 0.000000
usemtl b0b0b0
s 1
f 101/89/38 103/90/38 104/91/38 102/92/38
o Plane7
v -0.180200 0.122300 13.958100
v 0.180200 0.122300 13.958100
v -0.180200 0.122300 16.348499
v 0.180200 0.122300 16.348499
vt 0.000000 1.000000
vt 0.000000 0.000000
vt 1.000000 0.000000
vt 1.000000 1.000000
vn 0.000000 1.000000 0.000000
usemtl Standard2
s 1
f 105/93/39 107/94/39 108/95/39 106/96/39
o Plane41
v 2.348100 0.289100 4.039300
v 3.743300 0.289100 4.039300
v 2.348100 0.289100 4.146900
v 3.743300 0.289100 4.146900
vt 0.000000 1.000000
vt 0.000000 0.000000
vt 1.000000 0.000000
vt 1.000000 1.000000
vn 0.000000 1.000000 0.000000
usemtl b0b0b0
s 1
f 109/97/40 111/98/40 112/99/40 110/100/40
o Plane26
v -3.621700 0.289100 -8.888700
v -2.226500 0.289100 -8.888700
v -3.621700 0.289100 -8.781100
v -2.226500 0.289100 -8.781100
vt 0.000000 1.000000
vt 0.000000 0.000000
vt 1.000000 0.000000
vt 1.000000 1.000000
vn 0.000000 1.000000 0.000000
usemtl b0b0b0
s 1
f 113/101/41 115/102/41 116/103/41 114/104/41
o Plane39
v 2.348100 0.289100 0.260200
v 3.743300 0.289100 0.260200
v 2.348100 0.289100 0.367800
v 3.743300 0.289100 0.367800
vt 0.000000 1.000000
vt 0.000000 0.000000
vt 1.000000 0.000000
vt 1.000000 1.000000
vn 0.000000 1.000000 0.000000
usemtl b0b0b0
s 1
f 117/105/42 119/106/42 120/107/42 118/108/42
o Plane17
v -3.621700 0.289100 8.369201
v -2.226500 0.289100 8.369201
v -3.621700 0.289100 8.476800
v -2.226500 0.289100 8.476800
vt 0.000000 1.000000
vt 0.000000 0.000000
vt 1.000000 0.000000
vt 1.000000 1.000000
vn 0.000000 1.000000 0.000000
usemtl b0b0b0
s 1
f 121/109/43 123/110/43 124/111/43 122/112/43
o Plane43
v 2.348100 0.289100 8.488800
v 3.743300 0.289100 8.488800
v 2.348100 0.289100 8.596399
v 3.743300 0.289100 8.596399
vt 0.000000 1.000000
vt 0.000000 0.000000
vt 1.000000 0.000000
vt 1.000000 1.000000
vn 0.000000 1.000000 0.000000
usemtl b0b0b0
s 1
f 125/113/44 127/114/44 128/115/44 126/116/44
o Plane8
v -0.180200 0.106300 -5.128600
v 0.180200 0.106300 -5.128600
v -0.180200 0.106300 -2.738200
v 0.180200 0.106300 -2.738200
vt 0.000000 1.000000
vt 0.000000 0.000000
vt 1.000000 0.000000
vt 1.000000 1.000000
vn 0.000000 1.000000 0.000000
usemtl Standard2
s 1
f 129/117/45 131/118/45 132/119/45 130/120/45
o Plane
v 2.064800 0.071400 -16.122501
v 2.064800 0.071400 15.923100
v 3.692554 0.071400 15.923100
v 3.692554 0.071400 -16.122501
vt 0.000000 1.000000
vt 0.000000 0.000000
vt 0.892018 0.000000
vt 0.892018 1.000000
vn 0.000000 1.000000 0.000000
usemtl Standard
s 1
f 133/121/46 134/122/46 135/123/46 136/124/46
o Plane32
v 2.348100 0.289100 -13.161200
v 3.743300 0.289100 -13.161200
v 2.348100 0.289100 -13.053600
v 3.743300 0.289100 -13.053600
vt 0.000000 1.000000
vt 0.000000 0.000000
vt 1.000000 0.000000
vt 1.000000 1.000000
vn 0.000000 1.000000 0.000000
usemtl b0b0b0
s 1
f 137/125/47 139/126/47 140/127/47 138/128/47
o Plane25
v -3.621700 0.289100 -7.019000
v -2.226500 0.289100 -7.019000
v -3.621700 0.289100 -6.911400
v -2.226500 0.289100 -6.911400
vt 0.000000 1.000000
vt 0.000000 0.000000
vt 1.000000 0.000000
vt 1.000000 1.000000
vn 0.000000 1.000000 0.000000
usemtl b0b0b0
s 1
f 141/129/48 143/130/48 144/131/48 142/132/48
o Plane5
v -0.180200 0.152100 6.363500
v 0.180200 0.152100 6.363500
v -0.180200 0.152100 8.753901
v 0.180200 0.152100 8.753901
vt 0.000000 1.000000
vt 0.000000 0.000000
vt 1.000000 0.000000
vt 1.000000 1.000000
vn 0.000000 1.000000 0.000000
usemtl Standard2
s 1
f 145/133/49 147/134/49 148/135/49 146/136/49
o Plane9
v -0.192700 0.290500 -8.736100
v 0.167700 0.290500 -8.736100
v -0.192700 0.290500 -6.345700
v 0.167700 0.290500 -6.345700
vt 0.000000 1.000000
vt 0.000000 0.000000
vt 1.000000 0.000000
vt 1.000000 1.000000
vn 0.000000 1.000000 0.000000
usemtl Standard2
s 1
f 149/137/50 151/138/50 152/139/50 150/140/50
o Plane19
v -3.621700 0.289100 11.382700
v -2.226500 0.289100 11.382700
v -3.621700 0.289100 11.490299
v -2.226500 0.289100 11.490299
vt 0.000000 1.000000
vt 0.000000 0.000000
vt 1.000000 0.000000
vt 1.000000 1.000000
vn 0.000000 1.000000 0.000000
usemtl b0b0b0
s 1
f 153/141/51 155/142/51 156/143/51 154/144/51
o Plane42
v 2.348100 0.289100 6.345700
v 3.743300 0.289100 6.345700
v 2.348100 0.289100 6.453300
v 3.743300 0.289100 6.453300
vt 0.000000 1.000000
vt 0.000000 0.000000
vt 1.000000 0.000000
vt 1.000000 1.000000
vn 0.000000 1.000000 0.000000
usemtl b0b0b0
s 1
f 157/145/52 159/146/52 160/147/52 158/148/52
o Box2
v -2.097150 0.302300 16.114500
v -2.097150 0.302300 -15.895101
v -2.097150 -0.302300 16.114500
v -2.097150 -0.302300 -15.895101
v -2.327850 0.302300 -15.895101
v -2.327850 0.302300 16.114500
v -2.327850 -0.302300 -15.895101
v -2.327850 -0.302300 16.114500
vt 0.000000 1.000000
vt 0.000000 0.000000
vt 1.000000 0.000000
vt 1.000000 1.000000
vn 1.000000 0.000000 0.000000
vn -1.000000 0.000000 0.000000
vn 0.000000 1.000000 0.000000
vn 0.000000 -1.000000 0.000000
vn 0.000000 0.000000 1.000000
vn 0.000000 0.000000 -1.000000
usemtl b0b0b0
s 1
f 161/149/53 163/150/53 164/151/53 162/152/53
f 165/149/54 167/150/54 168/151/54 166/152/54
f 165/149/55 166/150/55 161/151/55 162/152/55
f 168/149/56 167/150/56 164/151/56 163/152/56
f 166/149/57 168/150/57 163/151/57 161/152/57
f 162/149/58 164/150/58 167/151/58 165/152/58
o Plane29
v -3.621700 0.289100 -14.546400
v -2.226500 0.289100 -14.546400
v -3.621700 0.289100 -14.438801
v -2.226500 0.289100 -14.438801
vt 0.000000 1.000000
vt 0.000000 0.000000
vt 1.000000 0.000000
vt 1.000000 1.000000
vn 0.000000 1.000000 0.000000
usemtl b0b0b0
s 1
f 169/153/59 171/154/59 172/155/59 170/156/59
o Plane11
v -3.621700 0.289100 -0.053800
v -2.226500 0.289100 -0.053800
v -3.621700 0.289100 0.053800
v -2.226500 0.289100 0.053800
vt 0.000000 1.000000
vt 0.000000 0.000000
vt 1.000000 0.000000
vt 1.000000 1.000000
vn 0.000000 1.000000 0.000000
usemtl b0b0b0
s 1
f 173/157/60 175/158/60 176/159/60 174/160/60
o Plane16
v -3.621700 0.289100 7.086500
v -2.226500 0.289100 7.086500
v -3.621700 0.289100 7.194100
v -2.226500 0.289100 7.194100
vt 0.000000 1.000000
vt 0.000000 0.000000
vt 1.000000 0.000000
vt 1.000000 1.000000
vn 0.000000 1.000000 0.000000
usemtl b0b0b0
s 1
f 177/161/61 179/162/61 180/163/61 178/164/61
o Plane3
v -0.180200 0.087500 -1.195200
v 0.180200 0.087500 -1.195200
v -0.180200 0.087500 1.195200
v 0.180200 0.087500 1.195200
vt 0.000000 1.000000
vt 0.000000 0.000000
vt 1.000000 0.000000
vt 1.000000 1.000000
vn 0.000000 1.000000 0.000000
usemtl Standard2
s 1
f 181/165/62 183/166/62 184/167/62 182/168/62
o Plane30
v -0.180200 0.250300 -16.002100
v 0.180200 0.250300 -16.002100
v -0.180200 0.250300 -13.611700
v 0.180200 0.250300 -13.611700
vt 0.000000 1.000000
vt 0.000000 0.000000
vt 1.000000 0.000000
vt 1.000000 1.000000
vn 0.000000 1.000000 0.000000
usemtl Standard2
s 1
f 185/169/63 187/170/63 188/171/63 186/172/63
o Plane45
v 2.348100 0.289100 13.523100
v 3.743300 0.289100 13.523100
v 2.348100 0.289100 13.630699
v 3.743300 0.289100 13.630699
vt 0.000000 1.000000
vt 0.000000 0.000000
vt 1.000000 0.000000
vt 1.000000 1.000000
vn 0.000000 1.000000 0.000000
usemtl b0b0b0
s 1
f 189/173/64 191/174/64 192/175/64 190/176/64
o Box
v -2.097150 0.302300 16.114500
v -2.097150 0.302300 -15.895101
v -2.097150 -0.302300 16.114500
v -2.097150 -0.302300 -15.895101
v -2.327850 0.302300 -15.895101
v -2.327850 0.302300 16.114500
v -2.327850 -0.302300 -15.895101
v -2.327850 -0.302300 16.114500
vt 0.000000 1.000000
vt 0.000000 0.000000
vt 1.000000 0.000000
vt 1.000000 1.000000
vn 1.000000 0.000000 0.000000
vn -1.000000 0.000000 0.000000
vn 0.000000 1.000000 0.000000
vn 0.000000 -1.000000 0.000000
vn 0.000000 0.000000 1.000000
vn 0.000000 0.000000 -1.000000
usemtl b0b0b0
s 1
f 193/177/65 195/178/65 196/179/65 194/180/65
f 197/177/66 199/178/66 200/179/66 198/180/66
f 197/177/67 198/178/67 193/179/67 194/180/67
f 200/177/68 199/178/68 196/179/68 195/180/68
f 198/177/69 200/178/69 195/179/69 193/180/69
f 194/177/70 196/178/70 199/179/70 197/180/70
o Plane37
v 2.348100 0.289100 -3.250200
v 3.743300 0.289100 -3.250200
v 2.348100 0.289100 -3.142600
v 3.743300 0.289100 -3.142600
vt 0.000000 1.000000
vt 0.000000 0.000000
vt 1.000000 0.000000
vt 1.000000 1.000000
vn 0.000000 1.000000 0.000000
usemtl b0b0b0
s 1
f 201/181/71 203/182/71 204/183/71 202/184/71
o Box4
v 2.348950 0.302300 16.004801
v 2.348950 0.302300 -16.004801
v 2.348950 -0.302300 16.004801
v 2.348950 -0.302300 -16.004801
v 2.118250 0.302300 -16.004801
v 2.118250 0.302300 16.004801
v 2.118250 -0.302300 -16.004801
v 2.118250 -0.302300 16.004801
vt 0.000000 1.000000
vt 0.000000 0.000000
vt 1.000000 0.000000
vt 1.000000 1.000000
vn 1.000000 0.000000 0.000000
vn -1.000000 0.000000 0.000000
vn 0.000000 1.000000 0.000000
vn 0.000000 -1.000000 0.000000
vn 0.000000 0.000000 1.000000
vn 0.000000 0.000000 -1.000000
usemtl b0b0b0
s 1
f 205/185/72 207/186/72 208/187/72 206/188/72
f 209/185/73 211/186/73 212/187/73 210/188/73
f 209/185/74 210/186/74 205/187/74 206/188/74
f 212/185/75 211/186/75 208/187/75 207/188/75
f 210/185/76 212/186/76 207/187/76 205/188/76
f 206/185/77 208/186/77 211/187/77 209/188/77
o Plane1
v -2.023900 0.071800 -16.421801
v 2.149300 0.071800 -16.421801
v -2.023900 0.071800 16.421801
v 2.149300 0.071800 16.421801
vt 0.000000 1.000000
vt 0.000000 0.000000
vt 1.000000 0.000000
vt 1.000000 1.000000
vn 0.000000 1.000000 0.000000
usemtl Standard1
s 1
f 213/189/78 215/190/78 216/191/78 214/192/78
o Plane40
v 2.348100 0.289100 2.171500
v 3.743300 0.289100 2.171500
v 2.348100 0.289100 2.279100
v 3.743300 0.289100 2.279100
vt 0.000000 1.000000
vt 0.000000 0.000000
vt 1.000000 0.000000
vt 1.000000 1.000000
vn 0.000000 1.000000 0.000000
usemtl b0b0b0
s 1
f 217/193/79 219/194/79 220/195/79 218/196/79
o Plane13
v -3.621700 0.289100 3.000800
v -2.226500 0.289100 3.000800
v -3.621700 0.289100 3.108400
v -2.226500 0.289100 3.108400
vt 0.000000 1.000000
vt 0.000000 0.000000
vt 1.000000 0.000000
vt 1.000000 1.000000
vn 0.000000 1.000000 0.000000
usemtl b0b0b0
s 1
f 221/197/80 223/198/80 224/199/80 222/200/80
o Plane38
v 2.348100 0.289100 -1.424700
v 3.743300 0.289100 -1.424700
v 2.348100 0.289100 -1.317100
v 3.743300 0.289100 -1.317100
vt 0.000000 1.000000
vt 0.000000 0.000000
vt 1.000000 0.000000
vt 1.000000 1.000000
vn 0.000000 1.000000 0.000000
usemtl b0b0b0
s 1
f 225/201/81 227/202/81 228/203/81 226/204/81
o Plane24
v -3.621700 0.289100 -5.203200
v -2.226500 0.289100 -5.203200
v -3.621700 0.289100 -5.095600
v -2.226500 0.289100 -5.095600
vt 0.000000 1.000000
vt 0.000000 0.000000
vt 1.000000 0.000000
vt 1.000000 1.000000
vn 0.000000 1.000000 0.000000
usemtl b0b0b0
s 1
f 229/205/82 231/206/82 232/207/82 230/208/82
